# xmcd
#
# Track frame offsets: 
#        150
#        16265
#        38887
#        56800
#        80897
#        96835
#        110727
#        129087
#        163605
#
# Disc length: 2517 seconds
#
# Revision: 0
# Processed by: cddbd v1.5.1PL0 Copyright (c) Steve Scherf et al.
# Submitted via: ExactAudioCopy v0.95a5
#
DISCID=7209d309
DTITLE=A C Reed and Big Wheeler  - Chicago Blues Session Vol 14
DYEAR=1998
DGENRE=Blues
TTITLE0=A. C. Reed - I Ain't Doin' Too Bad
TTITLE1=A. C. Reed - I Got The Blues
TTITLE2=A. C. Reed - I'm A Jealous Man
TTITLE3=Big Wheeler - Good Lover
TTITLE4=A. C. Reed - Last Time Around
TTITLE5=Big Wheeler - Crazy 'Bout You Baby
TTITLE6=A. C. Reed - Honey Where You Goin'
TTITLE7=Big Wheeler - Last Night
TTITLE8=Big Wheeler - What's On Your Mind
EXTD=
EXTT0=
EXTT1=
EXTT2=
EXTT3=
EXTT4=
EXTT5=
EXTT6=
EXTT7=
EXTT8=
PLAYORDER=
